<svg xmlns="http://www.w3.org/2000/svg" width="1080" height="757" viewBox="0 0 1080 757" role="img"><title>Phase 1 source-victim performance</title><style>text{font-family:Inter,Arial,sans-serif;fill:#172033}.title{font-size:28px;font-weight:700}.subtitle{font-size:15px;fill:#566176}.label{font-size:14px}.value{font-size:13px;font-weight:600}.group{font-size:16px;font-weight:700}.axis{font-size:12px;fill:#68748a}</style><rect width="100%" height="100%" fill="#ffffff"/><text class="title" x="40" y="45">Phase 1 source-victim performance</text><text class="subtitle" x="40" y="74">Condition-macro metrics across exact and new-instance source slices</text><line x1="310.0" y1="115" x2="310.0" y2="707" stroke="#e4e8ef"/><text class="axis" x="310.0" y="727" text-anchor="middle">0.000</text><line x1="448.0" y1="115" x2="448.0" y2="707" stroke="#e4e8ef"/><text class="axis" x="448.0" y="727" text-anchor="middle">0.018</text><line x1="586.0" y1="115" x2="586.0" y2="707" stroke="#e4e8ef"/><text class="axis" x="586.0" y="727" text-anchor="middle">0.036</text><line x1="724.0" y1="115" x2="724.0" y2="707" stroke="#e4e8ef"/><text class="axis" x="724.0" y="727" text-anchor="middle">0.054</text><line x1="862.0" y1="115" x2="862.0" y2="707" stroke="#e4e8ef"/><text class="axis" x="862.0" y="727" text-anchor="middle">0.072</text><line x1="1000.0" y1="115" x2="1000.0" y2="707" stroke="#e4e8ef"/><text class="axis" x="1000.0" y="727" text-anchor="middle">0.090</text><text class="group" x="40" y="141">Hybrid BC + GroupDRO + PPO</text><text class="label" x="298" y="165" text-anchor="end">ASR at 50 queries</text><rect x="310" y="149" width="540.84" height="22" rx="4" fill="#2563eb"/><text class="value" x="858.84" y="165">0.0705</text><text class="label" x="298" y="199" text-anchor="end">Query-normalized AUC</text><rect x="310" y="183" width="249.03" height="22" rx="4" fill="#0f9f7f"/><text class="value" x="567.03" y="199">0.0325</text><text class="group" x="40" y="257">BC only</text><text class="label" x="298" y="281" text-anchor="end">ASR at 50 queries</text><rect x="310" y="265" width="525.69" height="22" rx="4" fill="#2563eb"/><text class="value" x="843.69" y="281">0.0686</text><text class="label" x="298" y="315" text-anchor="end">Query-normalized AUC</text><rect x="310" y="299" width="237.79" height="22" rx="4" fill="#0f9f7f"/><text class="value" x="555.79" y="315">0.0310</text><text class="group" x="40" y="373">PPO only</text><text class="label" x="298" y="397" text-anchor="end">ASR at 50 queries</text><rect x="310" y="381" width="436.05" height="22" rx="4" fill="#2563eb"/><text class="value" x="754.05" y="397">0.0569</text><text class="label" x="298" y="431" text-anchor="end">Query-normalized AUC</text><rect x="310" y="415" width="195.64" height="22" rx="4" fill="#0f9f7f"/><text class="value" x="513.64" y="431">0.0255</text><text class="group" x="40" y="489">Score greedy</text><text class="label" x="298" y="513" text-anchor="end">ASR at 50 queries</text><rect x="310" y="497" width="429.81" height="22" rx="4" fill="#2563eb"/><text class="value" x="747.81" y="513">0.0561</text><text class="label" x="298" y="547" text-anchor="end">Query-normalized AUC</text><rect x="310" y="531" width="189.54" height="22" rx="4" fill="#0f9f7f"/><text class="value" x="507.54" y="547">0.0247</text><text class="group" x="40" y="605">Random</text><text class="label" x="298" y="629" text-anchor="end">ASR at 50 queries</text><rect x="310" y="613" width="429.10" height="22" rx="4" fill="#2563eb"/><text class="value" x="747.10" y="629">0.0560</text><text class="label" x="298" y="663" text-anchor="end">Query-normalized AUC</text><rect x="310" y="647" width="188.98" height="22" rx="4" fill="#0f9f7f"/><text class="value" x="506.98" y="663">0.0246</text><text class="group" x="40" y="721">Bandit</text><text class="label" x="298" y="745" text-anchor="end">ASR at 50 queries</text><rect x="310" y="729" width="195.72" height="22" rx="4" fill="#2563eb"/><text class="value" x="513.72" y="745">0.0255</text><text class="label" x="298" y="779" text-anchor="end">Query-normalized AUC</text><rect x="310" y="763" width="147.30" height="22" rx="4" fill="#0f9f7f"/><text class="value" x="465.30" y="779">0.0192</text><text class="axis" x="655.0" y="749" text-anchor="middle">Rate</text></svg>
