<svg xmlns="http://www.w3.org/2000/svg" width="1080" height="481" viewBox="0 0 1080 481" role="img"><title>Phase 1 run time</title><style>text{font-family:Inter,Arial,sans-serif;fill:#172033}.title{font-size:28px;font-weight:700}.subtitle{font-size:15px;fill:#566176}.label{font-size:14px}.value{font-size:13px;font-weight:600}.group{font-size:16px;font-weight:700}.axis{font-size:12px;fill:#68748a}</style><rect width="100%" height="100%" fill="#ffffff"/><text class="title" x="40" y="45">Phase 1 run time</text><text class="subtitle" x="40" y="74">Wall-clock time measured by the study runner</text><line x1="310.0" y1="115" x2="310.0" y2="431" stroke="#e4e8ef"/><text class="axis" x="310.0" y="451" text-anchor="middle">0.000</text><line x1="448.0" y1="115" x2="448.0" y2="431" stroke="#e4e8ef"/><text class="axis" x="448.0" y="451" text-anchor="middle">0.250</text><line x1="586.0" y1="115" x2="586.0" y2="431" stroke="#e4e8ef"/><text class="axis" x="586.0" y="451" text-anchor="middle">0.500</text><line x1="724.0" y1="115" x2="724.0" y2="431" stroke="#e4e8ef"/><text class="axis" x="724.0" y="451" text-anchor="middle">0.750</text><line x1="862.0" y1="115" x2="862.0" y2="431" stroke="#e4e8ef"/><text class="axis" x="862.0" y="451" text-anchor="middle">1.000</text><line x1="1000.0" y1="115" x2="1000.0" y2="431" stroke="#e4e8ef"/><text class="axis" x="1000.0" y="451" text-anchor="middle">1.250</text><text class="group" x="40" y="141">Classical Cnn</text><text class="label" x="298" y="165" text-anchor="end">Mean total run time</text><rect x="310" y="149" width="334.95" height="22" rx="4" fill="#7c3aed"/><text class="value" x="652.95" y="165">0.6068</text><text class="label" x="298" y="199" text-anchor="end">Mean source evaluation</text><rect x="310" y="183" width="53.96" height="22" rx="4" fill="#c4b5fd"/><text class="value" x="371.96" y="199">0.0977</text><text class="group" x="40" y="257">Modern Cnn</text><text class="label" x="298" y="281" text-anchor="end">Mean total run time</text><rect x="310" y="265" width="250.85" height="22" rx="4" fill="#7c3aed"/><text class="value" x="568.85" y="281">0.4544</text><text class="label" x="298" y="315" text-anchor="end">Mean source evaluation</text><rect x="310" y="299" width="51.20" height="22" rx="4" fill="#c4b5fd"/><text class="value" x="369.20" y="315">0.0928</text><text class="group" x="40" y="373">Transformer</text><text class="label" x="298" y="397" text-anchor="end">Mean total run time</text><rect x="310" y="381" width="311.60" height="22" rx="4" fill="#7c3aed"/><text class="value" x="629.60" y="397">0.5645</text><text class="label" x="298" y="431" text-anchor="end">Mean source evaluation</text><rect x="310" y="415" width="65.69" height="22" rx="4" fill="#c4b5fd"/><text class="value" x="383.69" y="431">0.1190</text><text class="axis" x="655.0" y="473" text-anchor="middle">Hours per policy run</text></svg>
